<?xml version="1.0" standalone="no"?><!DOCTYPE svg PUBLIC "-//W3C//DTD SVG 1.1//EN" "http://www.w3.org/Graphics/SVG/1.1/DTD/svg11.dtd"><svg t="1639123749591" class="icon" viewBox="0 0 1024 1024" version="1.1" xmlns="http://www.w3.org/2000/svg" p-id="3187" xmlns:xlink="http://www.w3.org/1999/xlink" width="200" height="200"><defs><style type="text/css"></style></defs><path d="M512 0C229.696 0 0 229.696 0 512c0 282.282667 229.696 512 512 512 282.282667 0 512-229.717333 512-512C1024 229.696 794.282667 0 512 0zM512 981.269333C253.269333 981.269333 42.730667 770.730667 42.730667 512S253.269333 42.730667 512 42.730667 981.269333 253.269333 981.269333 512 770.730667 981.269333 512 981.269333z" p-id="3188"></path><path d="M608.384 507.349333c57.706667-33.429333 96.704-95.722667 96.704-167.061333 0-106.453333-86.634667-193.088-193.088-193.088s-193.088 86.613333-193.088 193.088c0 71.338667 38.997333 133.632 96.725333 167.061333-113.301333 39.914667-194.837333 147.712-194.837333 274.474667 0 11.861333 9.557333 21.376 21.354667 21.376 11.797333 0 21.354667-9.514667 21.354667-21.376 0-137.002667 111.488-248.448 248.490667-248.448s248.448 111.466667 248.448 248.448c0 11.861333 9.536 21.376 21.376 21.376 11.861333 0 21.376-9.514667 21.418667-21.376C803.242667 655.061333 721.664 547.242667 608.384 507.349333zM361.642667 340.266667c0-82.901333 67.456-150.357333 150.357333-150.357333 82.922667 0 150.357333 67.456 150.357333 150.357333 0 82.901333-67.434667 150.357333-150.357333 150.357333C429.098667 490.624 361.642667 423.168 361.642667 340.266667z" p-id="3189"></path></svg>