<?xml version="1.0" standalone="no"?><!DOCTYPE svg PUBLIC "-//W3C//DTD SVG 1.1//EN" "http://www.w3.org/Graphics/SVG/1.1/DTD/svg11.dtd"><svg t="1639128036887" class="icon" viewBox="0 0 1024 1024" version="1.1" xmlns="http://www.w3.org/2000/svg" p-id="32815" xmlns:xlink="http://www.w3.org/1999/xlink" width="200" height="200"><defs><style type="text/css"></style></defs><path d="M488.163105 454.695876c0 40.981367 33.468253 74.205049 74.751494 74.205049 41.284265 0 74.752518-33.222659 74.752518-74.205049 0-40.98239-33.468253-74.206072-74.752518-74.206072C521.631358 380.489804 488.163105 413.713486 488.163105 454.695876L488.163105 454.695876 488.163105 454.695876zM488.163105 454.695876" p-id="32816"></path><path d="M264.015046 79.124082c-55.19509 0-99.773378 44.275389-99.773378 98.892311l0 74.260308-63.936171 0c-20.880563 0-37.899168 16.902972-37.899168 37.753859 0 20.996197 16.966417 37.754882 37.899168 37.754882l63.936171 0 0 72.901357-63.936171 0c-20.880563 0-37.899168 16.902972-37.899168 37.754882 0 20.999266 16.966417 37.753859 37.899168 37.753859l63.936171 0 0 72.907497-63.936171 0c-20.880563 0-37.899168 16.902972-37.899168 37.753859 0 20.996197 16.966417 37.754882 37.899168 37.754882l63.936171 0 0 72.906473 0 75.508741 0 72.955592c0 54.766324 44.669362 98.893334 99.773378 98.893334l597.803201 0c55.196113 0 99.774401-44.276413 99.774401-98.893334L961.592648 178.016393c0-54.769394-44.673455-98.892311-99.774401-98.892311L264.015046 79.124082 264.015046 79.124082zM562.9146 726.789924c-30.964222 0-149.502989-154.216337-149.502989-272.094048 0-117.877711 77.316923-157.485801 149.502989-157.485801 72.187089 0 149.504012 37.253462 149.504012 157.485801S593.878822 726.789924 562.9146 726.789924L562.9146 726.789924 562.9146 726.789924zM562.9146 726.789924" p-id="32817"></path></svg>