<?xml version="1.0" standalone="no"?><!DOCTYPE svg PUBLIC "-//W3C//DTD SVG 1.1//EN" "http://www.w3.org/Graphics/SVG/1.1/DTD/svg11.dtd"><svg t="1639129741276" class="icon" viewBox="0 0 1024 1024" version="1.1" xmlns="http://www.w3.org/2000/svg" p-id="8408" xmlns:xlink="http://www.w3.org/1999/xlink" width="200" height="200"><defs><style type="text/css"></style></defs><path d="M391.491118 716.8533c2.295998 0 4.531996-0.599999 6.647993-1.783998l273.559733-154.11485c8.103992-4.540996 11.287989-15.808985 7.095993-25.120975-2.746997-6.049994-8.063992-9.80899-13.874986-9.808991-2.315998 0-4.559996 0.605999-6.666994 1.800999l-273.479733 154.032849c-8.155992 4.596996-11.343989 15.907984-7.106993 25.213975 2.727997 6.031994 8.025992 9.78099 13.824987 9.780991zM478.503033 848.483171c2.847997 5.619995 7.882992 8.974991 13.466987 8.974992 2.618997 0 5.079995-0.717999 7.314992-2.132998l279.512727-176.688828c8.005992-5.080995 10.74399-16.566984 6.105994-25.600975-2.830997-5.579995-8.014992-9.046991-13.526986-9.046991-2.549998 0-4.955995 0.718999-7.144993 2.135998L484.559027 822.879196c-7.940992 5.059995-10.65699 16.545984-6.055994 25.603975z" p-id="8409"></path><path d="M898.296623 331.229677h-8.420992c-3.384997 0-6.479994-2.120998-7.701992-5.277995L776.160742 52.047949C763.944754 20.42998 735.123782 0 702.736814 0c-11.942988 0-23.660977 2.735997-34.829966 8.129992L90.881411 285.860721c-20.24398 9.73499-36.312965 27.224973-45.248956 49.250952-9.342991 22.910978-9.666991 48.115953-0.906999 70.97893l105.919897 262.231744c0.399 0.989999 0.601999 2.030998 0.601999 3.094997v254.269752c0 54.209947 39.171962 98.312904 87.319915 98.312904h659.729356c48.148953 0 87.320915-44.102957 87.320914-98.312904V429.542581c0-54.209947-39.171962-98.312904-87.320914-98.312904zM144.564359 506.483505a8.375992 8.375992 0 0 1-1.580999 0.153 8.217992 8.217992 0 0 1-7.651992-5.167995L87.705414 383.460626c-3.006997-7.679993-2.769997-16.659984 0.665-25.281976a41.600959 41.600959 0 0 1 20.58298-21.972978L686.02783 58.446943c5.293995-2.506998 11.084989-3.832996 16.746984-3.832996 13.757987 0 25.649975 7.699992 30.29497 19.613981l95.122907 245.76176a8.258992 8.258992 0 0 1-7.700992 11.238989H238.567267c-48.147953 0-87.319915 44.102957-87.319915 98.312904v68.834932a8.270992 8.270992 0 0 1-6.682993 8.106992z m53.884947-76.940924c0-24.142976 17.996982-43.784957 40.117961-43.784958l659.729356 0.006c22.121978 0 40.119961 19.638981 40.119961 43.778958v496.143515c0 24.140976-17.997982 43.779957-40.119961 43.779957h-659.729356c-22.120978 0-40.117961-19.638981-40.117961-43.779957V429.542581z" p-id="8410"></path></svg>