<?xml version="1.0" standalone="no"?><!DOCTYPE svg PUBLIC "-//W3C//DTD SVG 1.1//EN" "http://www.w3.org/Graphics/SVG/1.1/DTD/svg11.dtd"><svg t="1639129722684" class="icon" viewBox="0 0 1024 1024" version="1.1" xmlns="http://www.w3.org/2000/svg" p-id="7651" xmlns:xlink="http://www.w3.org/1999/xlink" width="200" height="200"><defs><style type="text/css"></style></defs><path d="M512 0C229.2662 0 0 229.2662 0 512s229.2662 512 512 512 512-229.2662 512-512S794.7338 0 512 0z m0 964.457622C262.098648 964.457622 59.542378 761.913287 59.542378 512S262.098648 59.67366 512 59.67366s452.457622 202.55627 452.457622 452.469557-202.544336 452.32634-452.457622 452.32634z m0-10.824801" p-id="7652"></path><path d="M698.396643 617.419487L544.808578 521.547786V220.183869a38.394033 38.394033 0 1 0-76.788065 0v322.536131a38.370163 38.370163 0 0 0 12.149557 27.927273 37.427319 37.427319 0 0 0 6.420886 5.024522l171.036643 106.803916a38.388065 38.388065 0 0 0 40.769044-65.056224z m0 0" p-id="7653"></path></svg>