<?xml version="1.0" standalone="no"?><!DOCTYPE svg PUBLIC "-//W3C//DTD SVG 1.1//EN" "http://www.w3.org/Graphics/SVG/1.1/DTD/svg11.dtd"><svg t="1639211809350" class="icon" viewBox="0 0 1024 1024" version="1.1" xmlns="http://www.w3.org/2000/svg" p-id="1669" xmlns:xlink="http://www.w3.org/1999/xlink" width="200" height="200"><defs><style type="text/css"></style></defs><path d="M604.458667 306.773333l-35.072 285.013334a57.941333 57.941333 0 0 1-114.261334 0L419.84 306.773333h0.682667a87.552 87.552 0 0 1-1.194667-11.52 93.056 93.056 0 0 1 186.112 0 87.722667 87.722667 0 0 1-1.152 11.52h0.469333zM512 833.28a69.76 69.76 0 1 1 69.802667-69.546667A69.674667 69.674667 0 0 1 512 833.28zM512 0a512 512 0 1 0 512 512A512.469333 512.469333 0 0 0 512 0z" p-id="1670"></path></svg>