<?xml version="1.0" standalone="no"?><!DOCTYPE svg PUBLIC "-//W3C//DTD SVG 1.1//EN" "http://www.w3.org/Graphics/SVG/1.1/DTD/svg11.dtd"><svg t="1639129678583" class="icon" viewBox="0 0 1024 1024" version="1.1" xmlns="http://www.w3.org/2000/svg" p-id="6942" xmlns:xlink="http://www.w3.org/1999/xlink" width="200" height="200"><defs><style type="text/css"></style></defs><path d="M928 960a32 32 0 1 1 0 64h-832a32 32 0 1 1 0-64h832zM896 0a128 128 0 0 1 128 128v576a128 128 0 0 1-128 128H128a128 128 0 0 1-128-128V128a128 128 0 0 1 128-128h768z m0 64H128a64 64 0 0 0-64 64v576a64 64 0 0 0 64 64h768a64 64 0 0 0 64-64V128a64 64 0 0 0-64-64z m-34.944 171.52c18.048 11.84 22.08 34.56 8.96 50.88l-147.008 182.4a40.96 40.96 0 0 1-23.36 14.08l-7.168 0.896a42.56 42.56 0 0 1-32.192-11.904l-98.624-97.92-114.752 200.576a41.024 41.024 0 0 1-35.392 19.776h-0.64a41.408 41.408 0 0 1-35.392-18.816L304.64 460.16 219.072 562.24a43.52 43.52 0 0 1-56.704 7.168c-17.92-12.16-21.376-35.008-7.936-51.008l123.136-146.88a42.24 42.24 0 0 1 35.136-14.4 41.024 41.024 0 0 1 32.576 18.688L409.6 480.576 516.48 293.888a40.576 40.576 0 0 1 30.72-19.392 43.072 43.072 0 0 1 35.2 11.584l104.32 103.616 117.76-146.112c13.12-16.256 38.464-19.84 56.576-8.064z" p-id="6943"></path></svg>