<?xml version="1.0" standalone="no"?><!DOCTYPE svg PUBLIC "-//W3C//DTD SVG 1.1//EN" "http://www.w3.org/Graphics/SVG/1.1/DTD/svg11.dtd"><svg t="1639137274005" class="icon" viewBox="0 0 1024 1024" version="1.1" xmlns="http://www.w3.org/2000/svg" p-id="3133" xmlns:xlink="http://www.w3.org/1999/xlink" width="200" height="200"><defs><style type="text/css"></style></defs><path d="M853.333329 981.333333 850.903718 981.333333C829.907533 812.957372 686.274871 682.666667 512.211183 682.666667 338.147499 682.666667 194.514837 812.957372 173.518652 981.333333L173.437747 981.333333C173.437747 1004.897481 154.287953 1024 130.665485 1024 107.043017 1024 87.893227 1004.897481 87.893227 981.333333L87.440004 981.333333C102.837158 826.254622 201.26918 695.602906 337.647002 634.467255 237.756736 574.860382 170.87785 465.887778 170.87785 341.333333 170.87785 152.820139 324.076198 0 513.05594 0 702.035682 0 855.234031 152.820139 855.234031 341.333333 855.234031 466.265596 787.948791 575.521348 687.554961 635.00832 817.736435 693.852557 913.107106 816.126374 934.255296 962.418112 937.079305 968.118635 938.666662 974.540608 938.666662 981.333333 938.666662 1004.897481 919.564143 1024 895.999996 1024 872.435849 1024 853.333329 1004.897481 853.333329 981.333333ZM513.05594 597.333333C654.790746 597.333333 769.68951 482.718229 769.68951 341.333333 769.68951 199.948437 654.790746 85.333333 513.05594 85.333333 371.321135 85.333333 256.422374 199.948437 256.422374 341.333333 256.422374 482.718229 371.321135 597.333333 513.05594 597.333333Z" p-id="3134"></path></svg>