<?xml version="1.0" standalone="no"?><!DOCTYPE svg PUBLIC "-//W3C//DTD SVG 1.1//EN" "http://www.w3.org/Graphics/SVG/1.1/DTD/svg11.dtd"><svg t="1639133350459" class="icon" viewBox="0 0 1024 1024" version="1.1" xmlns="http://www.w3.org/2000/svg" p-id="10878" xmlns:xlink="http://www.w3.org/1999/xlink" width="200" height="200"><defs><style type="text/css"></style></defs><path d="M939.264 421.312c-5.056-27.008-21.696-44.224-41.92-43.776h-3.648c-59.648 0-108.224-48.64-108.224-108.224 0-19.072 9.024-40.384 9.344-41.28a55.424 55.424 0 0 0-18.624-67.008l-1.344-0.832-108.48-60.352-1.664-0.64a60.864 60.864 0 0 0-66.176 13.184c-13.12 13.248-53.312 47.68-85.44 47.68-32.256 0-72.96-35.072-85.952-48.64a60.8 60.8 0 0 0-43.904-18.112 55.552 55.552 0 0 0-22.272 4.352l-1.408 0.64-112.384 61.696-1.408 0.96a55.296 55.296 0 0 0-18.816 67.008c0.128 0.192 9.6 22.08 9.6 41.344 0 59.584-48.64 108.224-108.288 108.224h-3.712c-20.416-0.384-36.928 16.768-41.984 43.776-0.32 1.984-9.024 48.704-9.024 85.76 0 35.84 8.128 80.576 9.024 85.696 5.056 26.624 21.248 43.904 41.28 43.904h4.416c59.776 0 108.288 48.512 108.288 108.096 0 19.52-9.344 41.152-9.344 41.28a55.04 55.04 0 0 0 18.56 66.88l1.216 1.024 106.56 59.52 1.408 0.64a60.16 60.16 0 0 0 66.496-14.016c15.232-16.384 56.704-50.496 87.296-50.496 33.28 0 75.776 38.144 88 51.648a60.16 60.16 0 0 0 44.16 18.88c7.872 0 15.36-1.472 22.144-4.608l1.344-0.512 110.208-60.992 1.6-1.024a55.232 55.232 0 0 0 18.688-66.752c-0.064-0.128-9.408-21.888-9.408-41.344 0-59.648 48.64-108.096 108.224-108.096h4.352c20.032 0 36.096-17.152 41.216-43.904 0.192-0.384 9.28-48 9.28-85.696-0.256-36.928-8.96-83.904-9.28-85.888z m-41.024 85.76c0 25.92-5.504 59.584-7.488 72a171.136 171.136 0 0 0-112.192 53.12 172.032 172.032 0 0 0-47.616 118.72c0 26.624 9.024 52.352 12.992 62.528l-100.544 55.616a298.432 298.432 0 0 0-39.232-34.688c-33.536-24.896-65.728-37.504-95.552-37.504-29.504 0-61.504 12.224-94.848 36.864-20.48 14.848-35.008 29.888-38.976 33.856l-97.216-54.144a176.64 176.64 0 0 0 13.12-62.656c0-44.224-17.024-86.528-47.68-118.848a171.264 171.264 0 0 0-112-52.992 474.24 474.24 0 0 1-7.616-72c0-25.92 5.376-59.648 7.552-71.936a170.88 170.88 0 0 0 112-53.248 171.84 171.84 0 0 0 47.68-118.848c0-26.56-8.896-52.224-13.12-62.656l103.04-56.32c0.128 0 0.512 0.064 0.512 0.192 3.52 3.52 18.304 18.304 38.912 33.024 32.896 23.424 64.384 35.392 93.184 35.392 28.544 0 59.776-11.776 92.672-34.688a315.52 315.52 0 0 0 38.4-32.192c0.32-0.064 0.576-0.064 0.768-0.192l99.328 55.104a179.2 179.2 0 0 0-13.184 62.656 172.544 172.544 0 0 0 159.872 172.032c1.856 12.16 7.232 45.952 7.232 71.808z" p-id="10879"></path><path d="M511.04 648.384a141.824 141.824 0 0 1-141.696-141.696c0-78.144 63.552-141.696 141.696-141.696 78.08 0 141.632 63.552 141.632 141.696a141.824 141.824 0 0 1-141.632 141.696z m0-235.392c-51.712 0-93.696 42.048-93.696 93.696 0 51.712 42.048 93.696 93.696 93.696a93.76 93.76 0 0 0 0-187.392z" p-id="10880"></path></svg>