<?xml version="1.0" standalone="no"?><!DOCTYPE svg PUBLIC "-//W3C//DTD SVG 1.1//EN" "http://www.w3.org/Graphics/SVG/1.1/DTD/svg11.dtd"><svg t="1639128003903" class="icon" viewBox="0 0 1024 1024" version="1.1" xmlns="http://www.w3.org/2000/svg" p-id="31738" xmlns:xlink="http://www.w3.org/1999/xlink" width="200" height="200"><defs><style type="text/css"></style></defs><path d="M632.368444 526.020543L465.972254 673.882757l-71.063973-88.369176a31.948068 31.948068 0 1 0-49.76526 39.73029l91.338708 114.582976A32.460057 32.460057 0 0 0 458.906816 752.012168a31.43608 31.43608 0 0 0 21.093917-8.396608l194.555544-167.624961a31.958308 31.958308 0 0 0-42.187833-48.024501z" p-id="31739"></path><path d="M819.653755 71.067761H691.861481l-21.093917-52.529997A32.050466 32.050466 0 0 0 641.993823 0.003789H381.494189a31.948068 31.948068 0 0 0-29.490525 18.533975l-23.858654 51.915611H200.352737A91.441106 91.441106 0 0 0 110.754789 159.948926v773.81908A91.645901 91.645901 0 0 0 204.243848 1023.98034h615.409907a91.543504 91.543504 0 0 0 93.386661-88.983563V159.948926a91.543504 91.543504 0 0 0-93.386661-88.881165z m-417.680035-7.065438H622.743064l47.410114 104.240813H354.563605z m448.399331 869.663285a27.544969 27.544969 0 0 1-29.490524 25.087425H204.346245a27.647367 27.647367 0 0 1-29.797717-25.087425V159.948926a27.544969 27.544969 0 0 1 29.285729-25.599414h98.608942l-23.653858 52.529997a31.948068 31.948068 0 0 0 23.653858 45.464559h415.632082a32.050466 32.050466 0 0 0 29.900115-45.464559l-23.756256-52.529997h95.434615a27.647367 27.647367 0 0 1 29.388127 25.599414z" p-id="31740"></path></svg>