<?xml version="1.0" standalone="no"?><!DOCTYPE svg PUBLIC "-//W3C//DTD SVG 1.1//EN" "http://www.w3.org/Graphics/SVG/1.1/DTD/svg11.dtd"><svg t="1639127413150" class="icon" viewBox="0 0 1024 1024" version="1.1" xmlns="http://www.w3.org/2000/svg" p-id="13002" xmlns:xlink="http://www.w3.org/1999/xlink" width="200" height="200"><defs><style type="text/css"></style></defs><path d="M954.4 328.4c-0.3-0.7-0.5-1.5-0.8-2.2-1.1-2.9-2.4-5.8-3.8-8.6-0.6-1.1-1.2-2.3-1.8-3.4-0.3-0.5-0.5-1-0.8-1.5-0.6-1.1-1.3-2.2-2-3.3-0.6-0.9-1.2-1.8-1.8-2.8-3.3-4.9-7.1-9.6-11.4-13.9L669.2 28.4c-13.6-13.6-30.8-22.8-49.4-26.5C613.7 0.6 607.3 0 600.9 0L576 0 172 0C112.4 0 64 48.4 64 108l0 808c0 59.7 48.4 108 108 108l680 0c59.7 0 108-48.4 108-108L960 384l0-23.3 0 0C960 349.6 958.1 338.7 954.4 328.4zM868.8 320 684 320c-24.3 0-44-19.7-44-44L640 89.8l129.1 130L868.8 320zM896 916c0 24.3-19.7 44-44 44L172 960c-24.3 0-44-19.7-44-44L128 108c0-24.3 19.7-44 44-44l404 0 0 212c0 59.7 48.4 108 108 108l212 0L896 916z" p-id="13003" fill="#bfbfbf"></path><path d="M224 258l256 0c17.7 0 32-14.3 32-32s-14.3-32-32-32L224 194c-17.7 0-32 14.3-32 32S206.3 258 224 258z" p-id="13004" fill="#bfbfbf"></path><path d="M224 450l256 0c17.7 0 32-14.3 32-32s-14.3-32-32-32L224 386c-17.7 0-32 14.3-32 32S206.3 450 224 450z" p-id="13005" fill="#bfbfbf"></path><path d="M192 610c0 17.7 14.3 32 32 32l576 0c17.7 0 32-14.3 32-32s-14.3-32-32-32L224 578C206.3 578 192 592.3 192 610z" p-id="13006" fill="#bfbfbf"></path><path d="M800 770 224 770c-17.7 0-32 14.3-32 32s14.3 32 32 32l576 0c17.7 0 32-14.3 32-32S817.7 770 800 770z" p-id="13007" fill="#bfbfbf"></path></svg>