<?xml version="1.0" standalone="no"?><!DOCTYPE svg PUBLIC "-//W3C//DTD SVG 1.1//EN" "http://www.w3.org/Graphics/SVG/1.1/DTD/svg11.dtd"><svg t="1639125443971" class="icon" viewBox="0 0 1024 1024" version="1.1" xmlns="http://www.w3.org/2000/svg" p-id="17128" xmlns:xlink="http://www.w3.org/1999/xlink" width="200" height="200"><defs><style type="text/css"></style></defs><path d="M943.58 365.26c0-0.44 0-0.87-0.43-1.31-2.61-8.72-6.1-16.99-10.02-24.84l-86.27-203.05c-10.02-23.09-30.5-37.91-53.16-37.91H215.47c-23.96 0-45.75 16.56-54.9 41.83L82.14 359.59c-1.74 4.36-2.61 9.15-3.49 13.51-2.61 10.46-3.92 21.79-3.92 33.12 0 81.91 66.23 148.15 148.15 148.15 66.23 0 122-43.13 141.17-102.83 21.79 60.13 79.74 102.83 147.28 102.83s125.49-42.7 147.28-102.83h0.87c19.17 59.7 74.94 102.83 141.17 102.83 81.92 0 148.15-66.23 148.15-148.15 0.45-13.51-1.73-27.46-5.22-40.96z m-169.93-55.78H250.77c-19.17 0-34.86-15.69-34.86-34.86s15.68-34.86 34.86-34.86h522.88c19.17 0 34.86 15.69 34.86 34.86s-15.69 34.86-34.86 34.86z m27.45 315.47c-54.03 0-104.58-19.61-143.36-53.59-40.09 33.99-91.5 53.59-145.97 53.59-54.46 0-105.45-19.61-145.53-53.16-38.78 33.55-88.89 53.16-142.92 53.16-33.99 0-65.8-7.84-94.56-21.79v272.77c0 28.76 23.53 52.28 52.29 52.28h662.31c28.76 0 52.28-23.53 52.28-52.28V603.16c-28.75 13.95-60.56 21.79-94.54 21.79z m0 0" p-id="17129" fill="#bfbfbf"></path></svg>