<?xml version="1.0" standalone="no"?><!DOCTYPE svg PUBLIC "-//W3C//DTD SVG 1.1//EN" "http://www.w3.org/Graphics/SVG/1.1/DTD/svg11.dtd"><svg t="1639127785748" class="icon" viewBox="0 0 1024 1024" version="1.1" xmlns="http://www.w3.org/2000/svg" p-id="18530" xmlns:xlink="http://www.w3.org/1999/xlink" width="200" height="200"><defs><style type="text/css"></style></defs><path d="M688 288a48 48 0 0 1 13.6 94.048A191.936 191.936 0 0 1 512 544a192.064 192.064 0 0 1-189.664-161.92 48 48 0 1 1 32.16-1.76 160 160 0 0 0 315.008-0.032A47.968 47.968 0 0 1 688 288z m118.528-224H217.472C168.16 64 128 110.56 128 167.712V856.32C128 913.44 168.16 960 217.472 960h589.056C855.84 960 896 913.44 896 856.288V167.68C896 110.56 855.84 64 806.528 64zM832 855.52c0 22.336-15.232 40.48-33.984 40.48H225.984C207.232 896 192 877.856 192 855.52V168.48C192 146.144 207.232 128 225.984 128h572.032C816.768 128 832 146.144 832 168.48v687.04z" p-id="18531"></path></svg>