<?xml version="1.0" standalone="no"?><!DOCTYPE svg PUBLIC "-//W3C//DTD SVG 1.1//EN" "http://www.w3.org/Graphics/SVG/1.1/DTD/svg11.dtd"><svg t="1639128228603" class="icon" viewBox="0 0 1024 1024" version="1.1" xmlns="http://www.w3.org/2000/svg" p-id="1767" xmlns:xlink="http://www.w3.org/1999/xlink" width="200" height="200"><defs><style type="text/css"></style></defs><path d="M933.647059 560.188235h-132.517647V105.411765c0-33.129412-27.105882-60.235294-60.235294-60.235294H90.352941c-33.129412 0-60.235294 27.105882-60.235294 60.235294v810.164706c0 33.129412 27.105882 60.235294 60.235294 60.235294h710.776471c105.411765 0 192.752941-87.341176 192.752941-192.752941v-165.647059c0-30.117647-27.105882-57.223529-60.235294-57.22353z m-719.811765-271.058823l72.282353-60.235294c3.011765-3.011765 6.023529-3.011765 9.035294-3.011765 9.035294 0 15.058824 6.023529 15.058824 15.058823v30.117648H496.941176c63.247059 3.011765 117.458824 54.211765 117.458824 120.470588s-54.211765 120.470588-120.470588 120.470588H243.952941c-18.070588 0-30.117647-15.058824-30.117647-33.129412 0-18.070588 15.058824-33.129412 33.129412-33.129412h252.988235c30.117647-3.011765 54.211765-27.105882 54.211765-57.223529 0-30.117647-24.094118-57.223529-57.22353-57.223529h-183.717647v30.117647c0 3.011765 0 9.035294-3.011764 9.035294-6.023529 6.023529-15.058824 6.023529-24.094118 3.011765l-72.282353-60.235295-3.011765-3.011764c-6.023529-6.023529-6.023529-15.058824 3.011765-21.082353zM240.941176 786.070588H207.811765c-18.070588 0-33.129412-15.058824-33.129412-33.129412 0-18.070588 12.047059-30.117647 30.117647-33.129411H240.941176c15.058824 0 30.117647 15.058824 30.117648 33.129411 0 18.070588-12.047059 30.117647-30.117648 33.129412z m0-138.541176H207.811765c-18.070588 0-33.129412-15.058824-33.129412-33.129412 0-18.070588 12.047059-30.117647 30.117647-33.129412H240.941176c18.070588 0 33.129412 15.058824 33.129412 33.129412-3.011765 18.070588-15.058824 33.129412-33.129412 33.129412z m355.388236 138.541176h-262.02353c-18.070588 0-30.117647-15.058824-30.117647-33.129412 0-18.070588 12.047059-30.117647 27.105883-33.129411h262.023529c18.070588 0 30.117647 15.058824 30.117647 33.129411 0 18.070588-12.047059 30.117647-27.105882 33.129412z m0-138.541176h-262.02353c-18.070588 0-30.117647-15.058824-30.117647-33.129412 0-18.070588 12.047059-30.117647 27.105883-33.129412h262.023529c18.070588 0 30.117647 15.058824 30.117647 33.129412 0 18.070588-12.047059 33.129412-27.105882 33.129412z" p-id="1768"></path></svg>