<?xml version="1.0" standalone="no"?><!DOCTYPE svg PUBLIC "-//W3C//DTD SVG 1.1//EN" "http://www.w3.org/Graphics/SVG/1.1/DTD/svg11.dtd"><svg t="1639128622546" class="icon" viewBox="0 0 1024 1024" version="1.1" xmlns="http://www.w3.org/2000/svg" p-id="3266" xmlns:xlink="http://www.w3.org/1999/xlink" width="200" height="200"><defs><style type="text/css"></style></defs><path d="M495.584 113.952c-110.752 0-200.96 90.336-200.96 200.96 0 110.752 90.336 200.928 200.96 200.928 110.752 0 200.96-90.304 200.96-200.928s-90.336-200.96-200.96-200.96z m0 484.064c-155.872 0-283.008-127.168-283.008-283.008S339.744 32 495.584 32c155.84 0 283.008 127.168 283.008 283.008 0 151.744-131.264 283.008-283.008 283.008zM138.656 905.6H786.88l24.544-4.128h61.536c-12.416-49.248-36.928-94.336-69.664-127.168-40.992-45.12-90.304-73.824-147.584-86.176-28.672 40.96-82.048 106.624-86.176 119.008 0 4.128-4.128 8.256-8.288 12.416-12.384 12.384-28.672 28.672-57.472 28.672s-49.248-12.416-61.536-28.672c-16.288-20.448-57.472-69.696-98.336-119.04a344.64 344.64 0 0 0-143.584 86.176c-28.832 32.832-49.248 73.824-61.664 118.912z m652.128 82.048H93.568c-12.384 0-20.416-4.128-28.672-12.416-8.256-8.224-12.416-20.384-12.416-32.8 4.128-82.048 36.96-155.84 94.336-217.472 57.472-57.504 127.168-98.368 205.088-114.88h12.288c12.384 0 24.576 4.128 32.832 16.288 40.96 49.248 90.304 106.624 110.72 135.424 12.416-20.448 40.992-57.504 90.336-123.04l12.384-16.32c8.256-8.256 20.448-16.288 32.8-16.288h12.416c82.048 12.384 155.84 53.344 213.344 114.88 57.504 57.472 90.304 131.296 102.464 221.6 0 12.416-4.128 24.576-8.256 32.8-4.128 8.288-20.448 12.416-28.672 12.416h-102.496l-24.576 4.16c-12.576-4.352-16.704-4.352-16.704-4.352z m0 0" p-id="3267"></path></svg>