<?xml version="1.0" standalone="no"?><!DOCTYPE svg PUBLIC "-//W3C//DTD SVG 1.1//EN" "http://www.w3.org/Graphics/SVG/1.1/DTD/svg11.dtd"><svg t="1639127736403" class="icon" viewBox="0 0 1024 1024" version="1.1" xmlns="http://www.w3.org/2000/svg" p-id="17699" xmlns:xlink="http://www.w3.org/1999/xlink" width="200" height="200"><defs><style type="text/css"></style></defs><path d="M895 98.23H129a65.07 65.07 0 0 0-65 65v260a65.08 65.08 0 0 0 65 65h766a65.08 65.08 0 0 0 65-65v-260a65.07 65.07 0 0 0-65-65z m15 325a15.2 15.2 0 0 1-15 15H129a15.2 15.2 0 0 1-15-15v-260a15.2 15.2 0 0 1 15-15h766a15.2 15.2 0 0 1 15 15zM895 537.9H129a65.08 65.08 0 0 0-65 65v260a65.08 65.08 0 0 0 65 65h766a65.08 65.08 0 0 0 65-65v-260a65.08 65.08 0 0 0-65-65z m15 325a15.2 15.2 0 0 1-15 15H129a15.2 15.2 0 0 1-15-15v-260a15.2 15.2 0 0 1 15-15h766a15.2 15.2 0 0 1 15 15z" p-id="17700"></path><path d="M812.58 166.78a25 25 0 0 0-25 25v192a25 25 0 1 0 50 0v-192a25 25 0 0 0-25-25zM812.58 614.84a25 25 0 0 0-25 25v192a25 25 0 0 0 50 0v-192a25 25 0 0 0-25-25z" p-id="17701"></path></svg>