<?xml version="1.0" standalone="no"?><!DOCTYPE svg PUBLIC "-//W3C//DTD SVG 1.1//EN" "http://www.w3.org/Graphics/SVG/1.1/DTD/svg11.dtd"><svg t="1639128653369" class="icon" viewBox="0 0 1024 1024" version="1.1" xmlns="http://www.w3.org/2000/svg" p-id="5461" xmlns:xlink="http://www.w3.org/1999/xlink" width="200" height="200"><defs><style type="text/css"></style></defs><path d="M671.36 768.256a32 32 0 1 1 0-64h319.68a32 32 0 0 1 0 64H671.36z m0 127.872a32 32 0 1 1 0-64h319.68a32 32 0 1 1 0 64H671.36z m63.936-607.36v0.32c0 70.784-25.664 135.68-68.224 185.6a437.76 437.76 0 0 1 124.672 103.552 32 32 0 0 1-49.152 40.96c-38.336-46.08-80.32-82.752-135.168-106.752-21.632-9.472-32.448-38.272-14.528-53.568a223.808 223.808 0 1 0-291.008-0.256c18.24 15.552 7.424 44.352-14.144 53.888-138.688 60.608-223.808 197.76-223.808 351.616v64a32 32 0 0 0 31.872 31.936h895.232a32 32 0 0 1 0 63.936H95.936C42.88 1024 0 981.12 0 928.128v-64c0-166.4 90.816-311.488 225.536-388.672a302.208 302.208 0 0 1-65.664-186.688 287.744 287.744 0 0 1 575.36 0z" p-id="5462"></path></svg>