<?xml version="1.0" standalone="no"?><!DOCTYPE svg PUBLIC "-//W3C//DTD SVG 1.1//EN" "http://www.w3.org/Graphics/SVG/1.1/DTD/svg11.dtd"><svg t="1640160178671" class="icon" viewBox="0 0 1024 1024" version="1.1" xmlns="http://www.w3.org/2000/svg" p-id="6015" xmlns:xlink="http://www.w3.org/1999/xlink" width="200" height="200"><defs><style type="text/css"></style></defs><path d="M512 128c-18.688 0.64-33.984 7.04-46.016 19.008A64.64 64.64 0 0 0 446.976 192v516.992L273.984 571.008a91.648 91.648 0 0 0-55.488-20.992 96.064 96.064 0 0 0-57.472 16.96 48.896 48.896 0 0 0-17.024 30.08c-1.984 11.968 0.64 22.976 8 32.96l180.992 240c6.016 8.64 13.44 15.168 22.528 19.456 8.96 4.352 18.496 6.528 28.48 6.528h512V574.976a62.656 62.656 0 0 0-12.48-38.016 61.12 61.12 0 0 0-33.536-23.04l-206.016-61.952a98.048 98.048 0 0 1-49.472-34.56 92.672 92.672 0 0 1-18.56-57.472V192a64.768 64.768 0 0 0-64-64L512 128zM359.04 556.992L383.04 576V192c0-23.36 5.504-44.992 16.512-64.96 11.008-20.032 26.624-36.032 46.976-48a125.696 125.696 0 0 1 129.984 0c20.352 11.968 36.032 27.968 47.04 48 11.008 19.968 16.512 41.6 16.512 64.96v168c0 7.36 1.92 13.824 6.016 19.52a29.696 29.696 0 0 0 16.96 11.52l206.016 61.952c27.328 8.64 49.152 24 65.472 46.08 16.384 21.952 24.896 47.296 25.536 75.968V896a64.768 64.768 0 0 1-64 64h-512a124.8 124.8 0 0 1-57.472-13.44 127.232 127.232 0 0 1-44.544-37.568l-180.992-240.96a116.288 116.288 0 0 1-18.496-39.488 109.504 109.504 0 0 1 14.464-84.992c8.064-12.352 18.368-22.528 31.04-30.528 29.312-19.328 60.8-28.16 94.528-26.496a158.272 158.272 0 0 1 91.456 34.56l44.992 35.904z" fill="#000000" p-id="6016"></path></svg>