<?xml version="1.0" standalone="no"?><!DOCTYPE svg PUBLIC "-//W3C//DTD SVG 1.1//EN" "http://www.w3.org/Graphics/SVG/1.1/DTD/svg11.dtd"><svg t="1640160199475" class="icon" viewBox="0 0 1024 1024" version="1.1" xmlns="http://www.w3.org/2000/svg" p-id="6852" xmlns:xlink="http://www.w3.org/1999/xlink" width="200" height="200"><defs><style type="text/css"></style></defs><path d="M512 796a456.672 456.672 0 0 1-74.768-6.4L262 896V718.976C170.64 654.832 112 556.48 112 446 112 252.704 291.088 96 512 96s400 156.704 400 350S732.912 796 512 796z m0-650c-193.296 0-350 134.32-350 300 0 101.664 59.2 191.344 149.376 245.6l-1.6 115.968 117.68-70.736a404.8 404.8 0 0 0 84.544 9.168c193.296 0 350-134.304 350-300S705.296 146 512 146zM336 400a48 48 0 1 1-48 48 48 48 0 0 1 48-48z m176 0a48 48 0 1 1-48 48 48 48 0 0 1 48-48z m176 0a48 48 0 1 1-48 48 48 48 0 0 1 48-48z" p-id="6853"></path></svg>