<?xml version="1.0" standalone="no"?><!DOCTYPE svg PUBLIC "-//W3C//DTD SVG 1.1//EN" "http://www.w3.org/Graphics/SVG/1.1/DTD/svg11.dtd"><svg t="1640160087491" class="icon" viewBox="0 0 1024 1024" version="1.1" xmlns="http://www.w3.org/2000/svg" p-id="2903" xmlns:xlink="http://www.w3.org/1999/xlink" width="200" height="200"><defs><style type="text/css"></style></defs><path d="M617.216 696.192v-94.08C650.24 578.56 670.464 512 670.464 512c0-31.36 31.36-41.472 31.36-41.472 43.136-41.472 0-115.2 0-115.2V222.08C662.528 100.608 513.408 84.864 513.408 84.864s-150.016 15.616-189.44 137.088V355.2s-43.392 73.856 0 115.2c0 0 31.488 10.112 31.488 41.472 0 0 20.352 66.56 53.632 90.112v94.08S20.48 813.568 32.256 939.008h959.488c11.776-125.312-374.528-242.816-374.528-242.816z" p-id="2904"></path></svg>